<?xml version="1.0" encoding="UTF-8"?><svg id="Layer_1" xmlns="http://www.w3.org/2000/svg" viewBox="0 0 121.67 120.19"><g><path d="M1.73,90.79c1.04,1.98,2.91,3.14,5.05,3.14s3.81-1.06,3.81-2.95c0-2.01-1.91-2.35-4.43-2.95-2.61-.62-5.19-1.34-5.19-4.45,0-2.91,2.52-4.8,5.65-4.8,2.88,0,4.96,1.38,5.95,3.25l-1.68,1.34c-.86-1.59-2.17-2.68-4.31-2.68-2.01,0-3.46,1.11-3.46,2.7,0,1.75,1.54,2.12,3.88,2.68,2.75,.65,5.77,1.22,5.77,4.73,0,3.09-2.74,5.05-6.02,5.05-2.86,0-5.61-1.43-6.74-3.67l1.73-1.38Z"/><path d="M21.75,93.88c2.15,0,3.69-1.25,4.29-3.35l2.1,.69c-.97,2.86-3.23,4.61-6.39,4.61-4.29,0-7.45-3.48-7.45-8.54s3.16-8.54,7.45-8.54c3.16,0,5.42,1.75,6.39,4.61l-2.1,.69c-.6-2.1-2.14-3.35-4.29-3.35-3.07,0-5.24,2.65-5.24,6.58s2.17,6.58,5.24,6.58Z"/><path d="M32.68,95.59h-2.21v-16.57h6.32c3.51,0,5.74,1.64,5.74,4.8,0,2.65-1.61,4.27-4.24,4.71l4.59,7.06h-2.54l-4.45-6.94h-3.21v6.94Zm3.99-8.86c2.35,0,3.67-1.04,3.67-2.91s-1.31-2.88-3.67-2.88h-3.99v5.79h3.99Z"/><path d="M47.63,95.59h-2.21v-16.57h2.21v16.57Z"/><path d="M53.49,95.59h-2.21v-16.57h6.32c3.51,0,5.74,1.64,5.74,4.8s-2.24,4.82-5.74,4.82h-4.11v6.94Zm3.99-8.86c2.35,0,3.67-1.04,3.67-2.91s-1.32-2.88-3.67-2.88h-3.99v5.79h3.99Z"/><path d="M72.01,80.96v14.63h-2.21v-14.63h-5.61v-1.94h13.43v1.94h-5.61Z"/><path d="M79.53,89.04v-10.01h2.21v9.94c0,3.39,1.8,4.87,4.29,4.87s4.31-1.48,4.31-4.87v-9.94h2.21v10.01c0,4.57-2.77,6.78-6.53,6.78s-6.51-2.21-6.51-6.78Z"/><path d="M98.12,95.59h-2.21v-16.57h6.32c3.51,0,5.74,1.64,5.74,4.8,0,2.65-1.62,4.27-4.25,4.71l4.59,7.06h-2.54l-4.45-6.94h-3.21v6.94Zm3.99-8.86c2.35,0,3.67-1.04,3.67-2.91s-1.32-2.88-3.67-2.88h-3.99v5.79h3.99Z"/><path d="M121.67,79.02v1.94h-8.63v5.1h7.31v1.94h-7.31v5.65h8.63v1.94h-10.82v-16.57h10.82Z"/><path d="M17.95,118.23c2.14,0,3.69-1.25,4.29-3.35l2.1,.69c-.97,2.86-3.23,4.61-6.39,4.61-4.29,0-7.45-3.48-7.45-8.54s3.16-8.54,7.45-8.54c3.16,0,5.42,1.75,6.39,4.61l-2.1,.69c-.6-2.1-2.15-3.34-4.29-3.34-3.07,0-5.24,2.65-5.24,6.58s2.17,6.58,5.24,6.58Z"/><path d="M37.48,103.37v1.94h-8.63v5.1h7.31v1.94h-7.31v5.65h8.63v1.94h-10.82v-16.57h10.82Z"/><path d="M53.47,119.93h-1.91l-9.04-13.33v13.33h-2.12v-16.57h2.33l8.61,12.8v-12.8h2.14v16.57Z"/><path d="M63.5,105.31v14.63h-2.21v-14.63h-5.61v-1.94h13.43v1.94h-5.61Z"/><path d="M73.53,119.93h-2.21v-16.57h6.32c3.51,0,5.74,1.64,5.74,4.8,0,2.65-1.62,4.27-4.25,4.71l4.59,7.06h-2.54l-4.45-6.94h-3.21v6.94Zm3.99-8.86c2.35,0,3.67-1.04,3.67-2.91s-1.32-2.88-3.67-2.88h-3.99v5.79h3.99Z"/><path d="M93.58,103.37l6.39,16.57h-2.24l-1.69-4.36h-7.43l-1.66,4.36h-2.21l6.39-16.57h2.45Zm-4.22,10.27h5.95l-3-7.77-2.95,7.77Z"/><path d="M102.16,103.37h2.21v14.63h8.26v1.94h-10.47v-16.57Z"/></g><path d="M88.57,30.75l-12.1-2.67,12.1-2.67c.29-.06,.25-.49-.05-.49l-12.39-.09,11.28-5.12c.27-.12,.14-.53-.15-.47l-12.13,2.48,9.97-7.35c.24-.18,.02-.55-.25-.43l-11.35,4.95,8.22-9.27c.2-.22-.09-.54-.33-.37l-10.07,7.2,6.11-10.77c.15-.26-.2-.51-.4-.29l-8.36,9.14,3.74-11.81c.09-.28-.3-.46-.45-.2l-6.27,10.68,1.2-12.33c.03-.3-.39-.39-.49-.1l-3.92,11.75L61.09,.22c-.03-.3-.46-.3-.5,0l-1.39,12.31L55.29,.78c-.09-.28-.51-.19-.49,.1l1.2,12.33-6.27-10.68c-.15-.26-.54-.08-.45,.2l3.74,11.81-8.36-9.14c-.2-.22-.55,.03-.4,.29l6.11,10.77-10.07-7.2c-.24-.17-.53,.15-.33,.37l8.22,9.27-11.35-4.95c-.27-.12-.49,.25-.25,.43l9.97,7.35-12.13-2.48c-.29-.06-.42,.35-.15,.47l11.28,5.12-12.39,.09c-.3,0-.34,.43-.05,.49l12.1,2.67-12.1,2.67c-.29,.06-.25,.49,.05,.49l12.39,.09-11.28,5.12c-.27,.12-.14,.53,.15,.47l12.13-2.48-9.97,7.35c-.24,.18-.02,.55,.25,.43l11.35-4.95-8.22,9.27c-.2,.22,.09,.54,.33,.37l10.07-7.2-6.11,10.77c-.15,.26,.2,.51,.4,.29l8.36-9.14-3.74,11.81c-.09,.28,.3,.46,.45,.2l6.27-10.68-1.2,12.33c-.03,.3,.39,.39,.49,.1l3.92-11.75,1.39,12.31c.03,.3,.46,.3,.5,0l1.39-12.31,3.92,11.75c.09,.28,.51,.19,.49-.1l-1.2-12.33,6.27,10.68c.15,.26,.54,.08,.45-.2l-3.74-11.81,8.36,9.14c.2,.22,.55-.03,.4-.29l-6.11-10.77,10.07,7.2c.24,.17,.53-.15,.33-.37l-8.22-9.27,11.35,4.95c.27,.12,.49-.25,.25-.43l-9.97-7.35,12.13,2.48c.29,.06,.42-.35,.15-.47l-11.28-5.12,12.39-.09c.3,0,.34-.43,.05-.49Zm-12.46-1.11l-8.79-.44,8.42,2.6c.3,.09,.18,.54-.13,.47l-8.58-1.96,7.84,4.02c.28,.14,.08,.56-.2,.44l-8.11-3.42,7.02,5.32c.25,.19-.02,.57-.28,.4l-7.4-4.78,5.99,6.46c.21,.23-.11,.55-.34,.34l-6.46-5.99,4.78,7.4c.17,.26-.21,.53-.4,.28l-5.32-7.02,3.42,8.12c.12,.29-.3,.48-.44,.2l-4.02-7.83,1.96,8.59c.07,.3-.38,.42-.47,.13l-2.6-8.41,.44,8.8c.02,.31-.44,.35-.48,.04l-1.1-8.74-1.1,8.74c-.04,.31-.5,.27-.48-.04l.44-8.79-2.6,8.42c-.09,.3-.54,.18-.47-.13l1.96-8.58-4.02,7.84c-.14,.28-.56,.08-.44-.2l3.42-8.11-5.32,7.02c-.19,.25-.57-.02-.4-.28l4.78-7.4-6.46,5.99c-.23,.21-.55-.11-.34-.34l5.99-6.46-7.4,4.78c-.26,.17-.53-.21-.28-.4l7.02-5.32-8.12,3.42c-.29,.12-.48-.3-.2-.44l7.83-4.02-8.59,1.96c-.3,.07-.42-.38-.13-.47l8.41-2.6-8.8,.44c-.31,.02-.35-.44-.04-.48l8.74-1.1-8.74-1.1c-.31-.04-.27-.5,.04-.48l8.79,.44-8.42-2.6c-.3-.09-.18-.54,.13-.47l8.58,1.96-7.84-4.02c-.28-.14-.08-.56,.2-.44l8.11,3.42-7.02-5.32c-.25-.19,.02-.57,.28-.4l7.4,4.78-5.99-6.46c-.21-.23,.11-.55,.34-.34l6.46,5.99-4.78-7.4c-.17-.26,.21-.53,.4-.28l5.32,7.02-3.42-8.12c-.12-.29,.3-.48,.44-.2l4.02,7.83-1.96-8.59c-.07-.3,.38-.42,.47-.13l2.6,8.41-.44-8.8c-.02-.31,.44-.35,.48-.04l1.1,8.74,1.1-8.74c.04-.31,.5-.27,.48,.04l-.44,8.79,2.6-8.42c.09-.3,.54-.18,.47,.13l-1.96,8.58,4.02-7.84c.14-.28,.56-.08,.44,.2l-3.42,8.11,5.32-7.02c.19-.25,.57,.02,.4,.28l-4.78,7.4,6.46-5.99c.23-.21,.55,.11,.34,.34l-5.99,6.46,7.4-4.78c.26-.17,.53,.21,.28,.4l-7.02,5.32,8.12-3.42c.29-.12,.48,.3,.2,.44l-7.83,4.02,8.59-1.96c.3-.07,.42,.38,.13,.47l-8.41,2.6,8.8-.44c.31-.02,.35,.44,.04,.48l-8.74,1.1,8.74,1.1c.31,.04,.27,.5-.04,.48Z"/></svg>